<?xml version="1.0" encoding="utf-8"?>
<!-- Generator: Adobe Illustrator 12.0.0, SVG Export Plug-In . SVG Version: 6.00 Build 51448)  -->
<!DOCTYPE svg PUBLIC "-//W3C//DTD SVG 1.1//EN" "http://www.w3.org/Graphics/SVG/1.1/DTD/svg11.dtd" [
	<!ENTITY ns_svg "http://www.w3.org/2000/svg">
	<!ENTITY ns_xlink "http://www.w3.org/1999/xlink">
]>
<svg  version="1.1" id="Layer_1" xmlns="&ns_svg;" xmlns:xlink="&ns_xlink;" width="367.986" height="236.725"
	 viewBox="0 0 367.986 236.725" overflow="visible" enable-background="new 0 0 367.986 236.725" xml:space="preserve">
<path fill="#FFFFFF" stroke="#FFFFFF" stroke-width="3.685" d="M365.692,97.802c-2.584-1.076-4.83-1.99-6.847-2.777l1.003-3.372
	c-10.456-5.11-28.096-10.516-41.804-10.516c-4.452,0-13.473,1.986-18.032,7.547c-0.7-3.534-3.877-12.743-5.843-17.086
	c-1.726-3.807-0.932-2.279-5.432-10.477c0,0-1.943-2.964-2.249-3.373c-0.519-0.692-1.956-2.49-1.956-2.49l-1.417-1.922
	c0,0-0.957-1.049-1.817-2.336c-0.857-1.29-7.163-9.786-8.851-11.459c-1.048-1.044-3.839-1.092-5.301-2.782
	c-0.751-0.873-0.331-3.429-0.862-4.157c-1.584-2.152-19.119-14.338-19.551-14.621c-0.432-0.293-3.796-2.218-5.521-3.226
	c-4.105-2.387-4.972-0.094-9.357-2.138c-0.879-0.408-1.391-4.101-4.003-5.095c-3.788-1.443-8.091-1.289-12.603-2.306
	c-7.61-1.719-29.292-3.746-32.165-3.317c-2.875,0.434-2.664,0.252-4.384,0.688c-1.722,0.431-1.675,0.38-3.568,0.408
	c-10.28,0.135-11.047,1.36-11.047,1.36c-3.591,1.292-7.187,3.868-8.765,4.446c-1.582,0.574-5.038,0.713-6.037,0.857
	c-1.011,0.148-3.596,1.435-5.324,2.436c-1.724,1.008-7.617,3.159-9.486,3.731c-1.864,0.574-5.979,2.797-5.979,2.797
	s-4.113,1.276-5.824,2.184c-0.57,2.29-3.275,6.185-6.595,4.338c-2.868,0.209-5.961,5.487-5.961,5.487l-4.767,4.191l-2.342,2.019
	l-2.022,2.355L90.21,51.261l-2.792,4.624c0,0-0.929,2.277-1.36,3.419c-0.424,1.145-6.63,12.007-6.63,12.007l-0.808,2.011
	l-0.679,2.547l-0.966,2.84c-13.449-10.482-42.258-5.995-69.784,0.912l1.327,6.925c-2.093,0.417-4.211,0.873-6.371,1.402
	l14.196,72.153l11.524-2.006l2.233,12.416c21.225-3.146,36.05-6.307,48.19-10.723c0.451,1.272,0.809,2.306,0.967,2.86
	c0.504,1.764,2.583,7.687,3.33,9.605c0.748,1.919,1.125,2.297,2.431,4.956c0.709,1.443,1.901,3.466,4.152,5.102
	c0.951,0.693,6.143-0.691,7.266,0.952c1.165,1.701-0.917,6.205,1.557,8.79l2.076,1.591c0,0,1.256,1.767,3.028,3.028
	c1.772,1.259,2.53,1.583,3.114,1.903c0.785,0.431,2.247,2.207,2.247,2.207l1.01,0.716l3.299,2.869l9.35,7.742l6.749,6.019
	l2.011,1.441l8.631,3.722l2.439,0.574l6.324,1.58c0,0,13.508,5.874,13.941,6.165c0.432,0.285,6.901,1.572,14.227,2.15
	c2.524,0.198,7.393-3.521,10.712-3.273c6.342,0.481,9.977,3.036,11.22,3.529c3.002,1.193,4.162,1.012,8.964,0.284
	c2.853-0.432,3.8-0.689,5.623-1.297c1.556-0.521,7.894-3.263,10.349-3.976c2.442-0.72,11.496-4.732,11.496-4.732
	s6.554-5.203,12.237-6.863c0.313-0.209,3.058-0.371,5.013-2.097c0.957-0.845-0.729-3.451,1.908-5.516
	c0.902-0.707,3.592-0.672,3.592-0.672s2.463,0.325,3.328-0.105c1.558-0.953,2.954-3.101,2.954-3.101s8.193-8.888,9.486-10.467
	c1.296-1.572,3.792-5.12,4.741-6.45c3.493-4.897,12.236-15.159,15.528-22.081c0.163-0.344,0.323-0.7,0.48-1.065l8.45,6.605
	l13.351-17.044c6.53,3.898,12.153,5.267,19.45,5.267c16.843,0,27.97-13.576,27.97-24.687c0-5.453-2.508-11.667-5.544-14.622
	L365.692,97.802z"/>
<g>
	<path fill="#633900" d="M164.087,4.357c0,0,0.767-1.225,11.047-1.36c1.893-0.028,1.846,0.022,3.568-0.408
		c1.72-0.436,1.509-0.254,4.384-0.688c2.873-0.429,24.555,1.599,32.165,3.317c4.512,1.017,8.814,0.863,12.603,2.306
		c2.612,0.994,3.124,4.687,4.003,5.095c4.386,2.044,5.252-0.249,9.357,2.138c1.725,1.007,5.089,2.932,5.521,3.226
		c0.432,0.283,17.967,12.469,19.551,14.621c0.531,0.728,0.111,3.284,0.862,4.157c1.462,1.689,4.253,1.737,5.301,2.782
		c1.688,1.673,7.993,10.17,8.851,11.459c0.86,1.288,1.817,2.336,1.817,2.336l1.417,1.922c0,0,1.438,1.797,1.956,2.49
		c0.306,0.409,2.249,3.373,2.249,3.373c4.5,8.197,3.706,6.669,5.432,10.477c2.217,4.899,5.987,16.014,5.987,18.157
		c0,0.999,1.487,15.973,1.487,18.263c0,2.293,0,1.003-0.293,5.448c-0.29,4.446-1.585,8.317-1.585,8.317v10.467l0.151,8.458
		c0,0-2.019,1.007-2.157,3.588c-0.145,2.581-0.434,4.152,0,5.302c0.428,1.152,1.008,1.292,1.008,1.719
		c0,0.433-0.869,3.016-1.008,3.442c-0.145,0.436-1.929,7.486-4.167,12.188c-3.292,6.922-12.035,17.184-15.528,22.081
		c-0.949,1.33-3.445,4.878-4.741,6.45c-1.293,1.579-9.486,10.467-9.486,10.467s-1.396,2.147-2.954,3.101
		c-0.865,0.431-3.328,0.105-3.328,0.105s-2.689-0.035-3.592,0.672c-2.637,2.064-0.951,4.671-1.908,5.516
		c-1.955,1.726-4.699,1.888-5.013,2.097c-5.684,1.66-12.237,6.863-12.237,6.863s-9.054,4.013-11.496,4.732
		c-2.455,0.713-8.793,3.455-10.349,3.976c-1.823,0.607-2.771,0.865-5.623,1.297c-4.802,0.728-5.962,0.909-8.964-0.284
		c-1.243-0.493-4.878-3.048-11.22-3.529c-3.319-0.248-8.188,3.472-10.712,3.273c-7.325-0.578-13.794-1.865-14.227-2.15
		c-0.433-0.291-13.941-6.165-13.941-6.165l-6.324-1.58l-2.439-0.574l-8.631-3.722l-2.011-1.441l-6.749-6.019l-9.35-7.742
		l-3.299-2.869l-1.01-0.716c0,0-1.462-1.776-2.247-2.207c-0.584-0.32-1.342-0.645-3.114-1.903c-1.771-1.262-3.028-3.028-3.028-3.028
		l-2.076-1.591c-2.474-2.585-0.393-7.089-1.557-8.79c-1.124-1.644-6.315-0.259-7.266-0.952c-2.251-1.636-3.443-3.658-4.152-5.102
		c-1.306-2.659-1.684-3.037-2.431-4.956c-0.747-1.919-2.826-7.842-3.33-9.605c-0.503-1.763-3.024-8.378-4.158-12.096
		c-1.134-3.717-1.137-17.448-1.57-21.028c-0.429-3.587-0.567-12.76-0.567-12.76l2.438-4.592c0,0,0.289-10.467-0.146-11.612
		c-0.429-1.143-0.863-5.447-0.863-6.452c0-1.003,0.721-5.444,1.009-6.311c0.289-0.856,0.431-4.01,0.431-4.01v-1.723l2.108-6.196
		l0.679-2.547l0.808-2.011c0,0,6.206-10.863,6.63-12.007c0.431-1.142,1.36-3.419,1.36-3.419l2.792-4.624l10.773-12.063l2.022-2.355
		l2.342-2.019l4.767-4.191c0,0,3.093-5.278,5.961-5.487c3.319,1.846,6.025-2.049,6.595-4.338c1.711-0.908,5.824-2.184,5.824-2.184
		s4.116-2.223,5.979-2.797c1.87-0.572,7.763-2.723,9.486-3.731c1.728-1.001,4.313-2.288,5.324-2.436
		c0.999-0.144,4.455-0.283,6.037-0.857C156.9,8.225,160.496,5.648,164.087,4.357z"/>
	<path fill="#DC9915" d="M294.433,117.461c0,58.719-47.6,106.326-106.325,106.326c-58.715,0-106.324-47.607-106.324-106.326
		c0-58.716,47.609-106.325,106.324-106.325C246.833,11.136,294.433,58.745,294.433,117.461z"/>
	<path fill="#A8520F" d="M272.129,117.465c0,46.397-37.615,84.022-84.021,84.022c-46.403,0-84.019-37.625-84.019-84.022
		c0-46.405,37.616-84.026,84.019-84.026C234.514,33.439,272.129,71.06,272.129,117.465z"/>
	<path fill="#933807" d="M244.644,117.465c0,31.221-25.303,56.532-56.536,56.532c-31.225,0-56.538-25.312-56.538-56.532
		c0-31.23,25.313-56.542,56.538-56.542C219.341,60.922,244.644,86.234,244.644,117.465z"/>
</g>
<path fill="#633900" d="M82.246,99.178c-7.928-9.595-37.75-21.608-80.099-11.229l14.196,72.153l11.524-2.006l2.233,12.416
	c26.23-3.887,42.691-7.799,56.381-14.069l1.209,6.502c0,0,29.265-5.906,29.46-5.945c0.184,0.072,20.102,8.372,20.102,8.372
	l6.279-18.104l7.739,17.521l19.419-15.33l15.916,30.37l25.552-41.469l3.34,24.607l41.486-9.275l16.332,0.684l0.484-4.343
	l28.724,22.455l13.351-17.044c6.53,3.898,12.153,5.267,19.45,5.267c16.843,0,27.97-13.576,27.97-24.687
	c0-5.453-2.508-11.667-5.544-14.622l7.941-23.599c-8.193-3.411-13.289-5.366-16.865-5.913L82.246,99.178z"/>
<path fill="#FFDD00" d="M333.096,153.751c-5.258,0-13.579-1.487-19.6-6.582l-12.871,16.646l-29.598-23.304l-0.852,6.124
	l-13.946-0.681l-36.269,8.283l-4.768-31.729l-28.35,44.235l-13.602-28.179l-20.094,16.403l-10.036-22.281l-8.765,23.143
	l-16.547-6.836l-27.387,5.44l-1.403-8.187c-12.667,8.325-27.867,11.765-54.106,15.382l-1.945-11.786l-11.937,1.966L7.191,79.622
	c31.313-7.857,64.295-12.591,74.426,4.291l41.798-6.355l0.678,12.552l5.901-15.102l27.505,6.544l3.562,6.953l24.857-7.448
	l6.672,12.321l13.611-31.529l11.073,21.965l39.655-5.816l-0.04,4.323c14.415-0.332,30.504-0.624,43.033,6.463
	c4.534-5.641,13.643-7.648,18.122-7.648c13.708,0,31.348,5.406,41.804,10.516l-8.649,29.037c3.91,3.556,5.482,7.538,5.482,13.714
	C356.682,142.628,348.418,153.751,333.096,153.751z"/>
<path fill="#633900" d="M36.069,112.765L33.69,93.928c13.019-2.333,16.297-1.212,16.297,2.049
	C49.988,99.534,43.302,106.819,36.069,112.765z M23.981,89.04l8.435,48.07l6.632-1.228l-1.553-12.959
	c19.623-1.96,29.965-0.094,29.965,2.467c0,3.731-7.242,10.18-26.539,15.447l1.569,9.746c26.029-3.283,39.965-11.456,39.965-22.391
	c0-6.554-8.125-12.096-14.69-13.042c-6.883-0.992-21.991,0.078-21.991,0.078c16.275-5.455,23.966-15.489,23.966-20.648
	c0-8.799-8.672-10.349-11.709-10.451L23.981,89.04z"/>
<path fill="#633900" d="M99.482,124.234l1.176,6.821l12.251-0.896l1.057,6.317l-19.143,3.825l-6.432-44.827l26.594-3.55l0.144,9.259
	l-17.589,1.994l1.104,8.131l14.619-1.093l2.009,12.734L99.482,124.234z"/>
<path fill="#633900" d="M171.141,130.674l-18.863-34.883l-11.221-2.557l-16.699,44.875l4.411,2.188l7.505-18.574l16.358-0.231
	l7.083,17.016L171.141,130.674z M149.528,115.777l-11.804-1.399l5.06-14.083L149.528,115.777z"/>
<path fill="#633900" d="M192.604,142.174l-19.995-41.709l12.214-4.332l13.214,23.347l13.688-28.595l6.249,11.791L192.604,142.174z"
	/>
<path fill="#633900" d="M273.988,101.364c8.694,0.339,12.369,2.279,12.369,3.873c-0.006,3.899-7.904,9.882-15.086,14.069
	L273.988,101.364z M309.307,142.235l-23.452-20.11c9.914-6.775,14.175-11.519,14.175-16.161c0-4.918-3.751-10.135-23.935-11.493
	l-8.64,2.108l-5.12,40.126l7.369,0.271l0.796-7.265c1.552-0.732,3.008-1.354,4.703-2.049l27.318,22.688L309.307,142.235z"/>
<path fill="#633900" d="M333.922,142.424c-6.259,0.043-12.745-2.203-20.937-8.938l2.095-2.689
	c16.162,12.683,43.455,2.084,14.86-8.419c-25.833-9.473-14.174-26.837-3.348-26.837c8.086,0,24.934,7.52,24.934,7.52l-3.171,11.662
	c-8.144-3.343-16.192-6.213-20.996-6.236c-2.617-0.012-3.29,1.039-3.29,1.979c0,5.924,25.033,9.15,25.033,22.173
	C349.103,136.693,344.801,142.424,333.922,142.424z"/>
<path fill="#633900" d="M237.702,125.866l1.163,6.866l12.195-1.373l1.149,6.46l-18.604,3.528l-6.063-44.863l25.401-3.507
	l-0.169,9.809l-17.004,1.95l0.904,7.407l14.419-1.096l2.179,13.531L237.702,125.866z"/>
<path fill="#F1A990" d="M34.394,138.254l1.449,8.069l2.358,1.199c0,0,15.515-4.623,21.501-6.569
	c12.412-4.04,17.386-7.077,18.148-12.89c0.324-2.464,0.743-4.084-4.636-7.577c-5.185-3.369-19.771-4.506-32.859-4.216l-0.436,0.01
	c-0.687,0.014-0.971-0.14-1.03-0.232c-0.029-0.045-0.04-0.114-0.04-0.188c0-0.071,0.021-0.123,0.037-0.189
	c10.762-5.971,28.504-22.915,28.504-25.49c0-8.214-13.646-12.605-50.195-3.814l8.47,46.785l2.746,1.936
	c0,0,4.583-13.905,4.914-15.254c12.852-0.598,22.559-2.289,26.587,0.087c3.096,0.593,5.009,1.213,5.004,3.273
	C64.916,126.903,55.333,133.574,34.394,138.254z M42.526,89.96c2.786,0.033,4.229,0.436,4.304,2.936
	c0.113,3.827-6.184,10.82-14.84,15.612c-0.354-2.765-2.024-15.655-2.227-17.235C35.61,90.266,39.74,89.926,42.526,89.96z"/>
<polygon fill="#F1A990" points="109.297,88.712 82.397,92.302 88.773,136.205 91.129,137.84 109.407,129.193 107.431,127.158 
	95.785,127.894 95.449,121.309 109.561,108.395 108.196,106.342 92.517,107.608 93.658,100.398 111.467,90.738 "/>
<path fill="#F1A990" d="M146.053,90.897l-11.052-2.727l-17.391,46.712l1.583,2.317c0,0,13.886-20.451,14.507-21.388
	c0.992,0.065,11.795,0.476,11.795,0.476l6.298,18.975l3.471,1.266l-7.134-42.883L146.053,90.897z M144.458,112.388l-9.199-0.66
	l4.482-12.533L144.458,112.388z"/>
<polygon fill="#F1A990" points="191.493,117.429 180.99,95.843 179.011,94.036 164.198,98.473 184.46,140.008 188.07,141.84 
	207.396,89.596 205.46,87.689 "/>
<path fill="#F1A990" d="M285.477,117.582c1.204-1.022,13.002-10.703,13.002-14.502c0-7.706-11.207-12.751-36.686-11.614
	l-3.069,39.875l2.057,1.997l5.907-0.049c0,0,0.616-5.708,0.728-6.754c1.334-0.467,5.867-2.825,7.846-3.9L285.477,117.582z
	 M284.542,102.515c0,3.529-7.937,10.126-15.651,12.923l2.414-17.025C277.153,98.532,284.542,98.935,284.542,102.515z"/>
<path fill="#F1A990" d="M336.042,128.109c-0.007-1.196-0.562-2.018-2.188-3.261c-1.625-1.245-4.441-2.618-9.512-4.815
	c-5.752-2.493-7.313-2.98-10.176-4.856c-6.668-4.371-8.375-8.951-8.375-12.962c0-5.222,5.079-12.212,15.729-12.212
	c8.497,0,17.769,2.961,25.804,6.302l0.898,2.856l-4.622,8.67c0,0-19.001-7.528-23.929-0.791c-2.652,3.645,0.912,6.014,10.328,9.98
	c9.095,3.822,15.316,7.498,15.452,12.949c0.091,3.498-2.068,6.651-5.773,8.433c-5.929,2.851-16.454,1.724-28.423-8.349l-0.644-2.664
	l2.222-2.659c5.773,5.542,11.454,7.2,15.633,7.2C332.04,131.931,336.042,130.727,336.042,128.109z"/>
<polygon fill="#F1A990" points="249.565,91.787 247.838,89.856 219.693,93.6 226.779,137.356 229.231,138.885 247.508,130.247 
	245.72,128.028 231.925,129.158 233.587,122.38 247.662,109.293 245.798,107.353 231.27,108.595 231.825,101.768 "/>
<path fill="#E03127" d="M32.401,110.671l-2.445-19.13c15.327-2.954,19.412-1.434,19.412,2.384c0,4.863-9.16,12.892-16.902,16.747
	H32.401z M19.974,88.449l8.437,46.638l6.888-1.286l-1.668-13.464c25.914-2.666,33.264,0.162,33.264,4.459
	c0,4.063-9.046,10.741-29.984,15.45l1.29,7.276c28.761-3.188,42.038-12.663,42.038-20.578c0-9.499-13.192-15.71-37.391-12.742
	c16.51-7.01,24.656-15.72,24.656-23.553C67.503,81.038,43.827,82.276,19.974,88.449z"/>
<path fill="#E03127" d="M95.683,122.039l1.292,7.996l12.431-0.842l0.901,5.089l-19.179,3.558l-6.252-43.552l26.59-3.55v8.178
	l-17.583,1.997l1.06,8.576l14.617-1.093l1.906,12.359L95.683,122.039z"/>
<path fill="#E03127" d="M166.634,129.033l-18.481-35.366L136.52,91.01l-17.327,46.19l5.833,2.466l8.875-21.321l14.921,0.177
	l6.442,18.007L166.634,129.033z M147.895,114.734l-12.831-1.024l6.074-15.558L147.895,114.734z"/>
<path fill="#E03127" d="M188.07,141.84l-20.228-41.805l13.147-4.192l12.875,22.674l13.531-28.921l6.248,12.239L188.07,141.84z"/>
<path fill="#E03127" d="M271.746,98.5c10.159-0.044,14.242,2.128,14.352,5.148c0,4.347-7.453,10.108-17.057,13.919L271.746,98.5z
	 M264.124,93.783l-3.344,39.555l6.299,0.193l0.719-6.638c0,0,5.339-1.803,7.536-3.157l26.403,22.028l7.086-8.439l-22.799-19.579
	c6.648-4.842,12.454-10.224,12.454-14.666C298.479,96.26,284.333,92.96,264.124,93.783z"/>
<path fill="#E03127" d="M346.104,130.505c0,5.388-5.314,9.193-13.073,9.193c-6.218,0-13.987-2.733-21.775-9.645l1.803-2.254
	c4.597,4.466,10.749,6.29,15.751,6.343c5.002,0.052,8.857-1.672,8.857-4.3c0-8.572-30.242-10.025-30.242-25.58
	c0-5.928,4.725-11.888,14.817-11.888c11.28,0,25.98,6.787,25.98,6.787l-2.955,11.241c-7.335-2.994-15.268-5.263-19.799-5.263
	c-4.662,0-5.178,1.502-5.178,2.44C320.291,115.355,346.104,117.95,346.104,130.505z"/>
<path fill="#E03127" d="M233.787,123.09l1.293,7.996l12.428-0.839l0.903,5.087l-19.18,3.551l-6.253-43.549l26.587-3.549v8.18
	l-17.579,1.995l1.056,8.426l14.62-1.093l1.903,12.509L233.787,123.09z"/>
</svg>
