<?xml version="1.0" encoding="utf-8"?>
<!-- Generator: Adobe Illustrator 12.0.0, SVG Export Plug-In . SVG Version: 6.00 Build 51448)  -->
<!DOCTYPE svg PUBLIC "-//W3C//DTD SVG 1.1//EN" "http://www.w3.org/Graphics/SVG/1.1/DTD/svg11.dtd" [
	<!ENTITY ns_svg "http://www.w3.org/2000/svg">
	<!ENTITY ns_xlink "http://www.w3.org/1999/xlink">
]>
<svg  version="1.1" id="Layer_1" xmlns="&ns_svg;" xmlns:xlink="&ns_xlink;" width="396.583" height="149.408"
	 viewBox="0 0 396.583 149.408" overflow="visible" enable-background="new 0 0 396.583 149.408" xml:space="preserve">
<g>
	<path d="M360.134,149.402h-47.337l6.422-27.036H351c4.9,0,7.266-2.534,7.266-4.9c0-9.463-37.343-23.994-37.343-49.172
		c0-10.815,6.759-25.685,31.091-25.685h39.757v27.036h-25.427c-1.316,0-2.093,0.465-2.093,1.357c0,4.92,32.331,17.854,32.331,43.954
		C396.583,135.189,378.483,149.402,360.134,149.402z"/>
	<path d="M51.045,149.408c-30.585,0-47.476-16.897-47.476-43.258c0-35.485,29.733-63.366,67.752-63.366h13.011V71.51h-15.1
		c-17.601,0-30.14,11.856-30.14,31.865c0,6.47,3.729,12.415,10.04,13.708c3.227,0.662,4.928,4.106,9.178,4.106h26.942l6.421,28.219
		H51.045z"/>
	<path d="M146.073,149.408c-33.289,0-51.38-18.588-51.38-42.751c0-18.926,10.149-41.737,19.443-64.042h32.836
		c-9.463,27.205-15.004,49.172-15.004,62.014c0,5.296,2.822,10.06,9.929,12.004c2.86,0.782,5.351,4.05,9.583,4.05h10.646V42.615
		h32.781v106.793H146.073z"/>
	<path d="M243.256,149.408h-28.919V4.933h33.964v35.482h17.742c34.134,0,43.246,21.69,43.246,42.643
		C309.29,118.902,280.732,149.408,243.256,149.408z"/>
</g>
<g>
	<path fill="#61BB46" d="M45.117,144.474C14.532,144.474,0,127.578,0,101.216c0-35.485,27.374-63.535,65.394-63.535h13.011v28.726
		H65.901c-14.194,0-31.937,11.83-31.937,33.626c0,9.801,5.915,16.222,18.419,16.222h26.022l6.421,28.219H45.117z"/>
	<path fill="#61BB46" d="M139.743,144.474c-33.288,0-48.158-18.588-48.158-42.751c0-18.925,6.928-41.737,16.222-64.042h34.302
		c-9.463,27.205-15.546,49.172-15.546,62.014c0,7.436,3.886,16.053,18.587,16.053h10.646V37.682h32.781v106.792H139.743z"/>
	<path fill="#61BB46" d="M239.267,144.474h-31.26V0h33.964v37.682h17.742c34.134,0,44.441,20.108,44.441,41.061
		C304.155,116.086,276.612,144.474,239.267,144.474z"/>
	<path fill="#61BB46" d="M360.927,144.474h-54.579l7.267-27.036h31.091c4.901,0,7.267-2.534,7.267-4.9
		c0-9.463-37.344-23.994-37.344-49.171c0-10.815,6.759-25.685,31.092-25.685h40.385v27.036h-22.98c-3.717,0-5.745,1.352-5.745,4.056
		c0,7.942,34.134,20.953,34.134,45.117C391.513,133.998,373.77,144.474,360.927,144.474z"/>
</g>
<g>
	<path fill="#195314" d="M232.943,93.45c4.018-1.307,8.723-3.887,11.164-5.625c2.435-1.744,6.528-5.398,10.794-4.614
		c0,0,4.963,0.172,4.788,7.226c0,0-0.435,2.873-0.61,4.615c0,0-0.35,6.181,2.177,13.232c0,0,4.092,8.617-4.442,15.322
		c0,0-12.012,9.229-22.457,2.962c0,0-4.588-3.048-7.74-9.293c0,0-5.897-7.942-1.835-17.131
		C226.378,97.148,228.844,94.784,232.943,93.45z"/>
	<path fill="#195314" d="M261.057,57.072c0,0,5.591,1.145,2.228,7.872c0,0-3.839,6.982-4.958,8.631c0,0-3.152,6.783-9.242,4.035
		c0,0-5.881-3.606-6.849-7.828c0,0-1.135-2.904,2.023-7.128c0,0,3.696-4.461,8.556-5.726
		C254.872,56.393,257.696,55.884,261.057,57.072z"/>
	<path fill="#195314" d="M237.016,61.685c0,0,1.362-1.243,3.33-0.783c0,0,2.018,0.579,0.733,1.816c0,0-0.953,0.533-1.566,1.421
		c0,0-1.411,1.312-2.695,0.52C236.818,64.659,234.542,63.037,237.016,61.685z"/>
	<path fill="#195314" d="M264.809,50.458c0,0-3.596,2.331,0.3,4.861c0,0,1.317,0.947,3.389-1.486c0,0,0.702-0.938,0.794-1.336
		c0.089-0.399-0.597-1.352-1.031-1.94C268.26,50.557,266.906,49.493,264.809,50.458z"/>
	<path fill="#195314" d="M267.498,69.468c0,0,3.175-9.389,8.836-3.13c0,0,6.863,6.743,4.535,15.008c0,0-0.543,6.084-6.996,7.826
		c0,0-6.966,0.192-8.859-1.859c0,0-2.931-3.084-3.575-6.636c-0.494-2.739-0.044-3.618,2.222-5.549
		C263.66,75.128,267.087,70.035,267.498,69.468z"/>
	<path fill="#195314" d="M274.563,57.308c0,0,2.52-4.631,4.537-0.107c0,0,0.868,3.429-0.565,4.601c0,0-2.096,0.792-3.283-1.548
		C275.251,60.254,274.224,58.778,274.563,57.308z"/>
	<path fill="#195314" d="M225.947,70.156c0.832-0.744,2.897-2.609,4.128-3.34c1.231-0.734,5.927-2.298,6.201,2.238
		c0,0-0.476,2.653-0.743,3.701c0,0-0.611,1.559,1.203,3.46c0,0,3.207,4.688,0.862,7.92c0,0-4.78,7.52-11.507,2.612
		c-3.694-3.813-4.738-5.308-4.363-10.331C221.934,73.66,225.114,70.899,225.947,70.156z"/>
	<path fill="#195314" d="M264.835,99.633c0.041-0.161,0.478-3.676,5.193-3.197c0,0,3.438,0.854,5.194-0.664
		c0,0,1.938-1.836,3.818-2.752c0,0,3.369-1.579,5.328,1.774c0,0,1.19,4.097-1.727,9.288c0,0-3.753,7.751-9.544,7.667
		c0,0-4.259,0.454-7.534-6.777C265.565,104.972,264.354,101.43,264.835,99.633z"/>
	<path fill="#195314" d="M284.79,83.388c0.32-0.456,2.046-1.615,2.823,0.429c0,0,0.476,1.512-0.16,3.799
		c0,0-0.513,4.957-3.037,1.758c0,0-1.371-2.004-0.448-4.564L284.79,83.388z"/>
	<path fill="#FFFFFF" d="M233.722,94.281c0,0,8.807-4.311,11.324-6.109c2.517-1.796,6.544-3.753,10.949-2.943
		c0,0,3.1-1.661,3.573,5.798c0.309,4.904-0.093,5.723,0.372,9.918c0.467,4.194,4.092,11.384,3.98,15.516
		c-0.178,6.482-4.884,9.767-9.769,12.34c-4.885,2.575-15.36,4.352-20.51-0.798c0,0-4.527-4.04-6.471-9.524
		c0,0-1.643-3.917-1.995-9.543c0.53,3.367,0.793-8.197,1.589-9.057C227.588,98.368,230.866,94.683,233.722,94.281z"/>
	<path fill="#FFFFFF" d="M254,58.533c-1.551,1.789,4.608-1.898,7.972-0.707c0,0,5.012,1.232,2.481,8.157
		c-1.42,3.996-3.107,5.373-5.327,9.678c0,0-3.373,6.171-8.207,3.741c0,0-5.076-3.115-6.044-7.336c0,0-2.275-3.706,0.882-7.933
		C245.756,64.132,255.551,56.741,254,58.533z"/>
	<path fill="#FFFFFF" d="M265.842,51.682c0,0-0.878,2.029-0.578,3.692c0.705,1.043,1.859,1.177,2.879,0.821
		c2.215-0.771,1.689-3.461,1.155-4.396C269.298,51.8,268.043,50.044,265.842,51.682z"/>
	<path fill="#FFFFFF" d="M268.556,71.328c0,0,4.136-7.936,8.948-2.459c0,0,6.527,5.327,4.528,13.673
		c-1.377,5.062-4.285,7.835-7.393,8.146c-3.106,0.311-5.926,0.332-8.59-2.508c0,0-3.02-4.156-3.533-5.742
		c0,0-1.641-2.203,2.15-5.684C264.667,76.754,268.147,71.891,268.556,71.328z"/>
	<path fill="#FFFFFF" d="M275.642,58.704c0,0,2.377-4.125,4.11-0.219c0.406,0.921,1.198,4.084-0.534,4.662
		c-1.154,0.385-2.041-0.711-2.44-1.287C276.778,61.86,275.299,60.172,275.642,58.704z"/>
	<path fill="#FFFFFF" d="M285.475,84.747c0.321-0.451,2.263-1.805,2.506,0.65c0,0,0.501,2.762,0.033,4.395
		c-0.699,2.441-1.964,3.519-3.583-0.376c0,0-0.54-0.962,0.384-3.521L285.475,84.747z"/>
	<path fill="#FFFFFF" d="M230.083,68.672c0,0,4.476-4.129,6.178-0.602c0.623,1.287,0.739,3.161,0.223,4.883
		c-0.345,1.151-0.305,2.979,1.51,4.883c0,0,2.041,2.98,0.799,7.369c-1.33,4.705-8.167,6.17-11.542,3.463
		c-3.374-2.707-3.196-9.087-3.169-10.076c0,0-1.744-3.681,2.506-7C226.587,71.592,228.933,69.338,230.083,68.672z"/>
	<path fill="#FFFFFF" d="M238.045,63.067c0,0,1.569-1.76,2.619-1.465c0,0,0.969-0.358,0.932,0.932
		c-0.045,1.51-0.756,0.978-1.515,2.548c-0.453,0.934-1.505,0.96-2.125,0.605C237.957,65.687,235.557,64.353,238.045,63.067z"/>
	<path fill="#231F20" d="M229.818,67.901c0,0,6.442-4.448,6.554,1.514c0,0-0.477,2.655-0.743,3.705c0,0-0.545,1.556,1.269,3.458
		c0,0,3.011,4.756,0.667,7.983c0,0-4.65,7.454-11.377,2.544c-3.694-3.809-3.832-8.847-3.805-9.837c0,0-0.311-3.129,3.939-6.448
		C226.322,70.821,228.667,68.566,229.818,67.901z"/>
	<path fill="#231F20" d="M237.174,62.108c0,0,0.805-0.791,1.941-0.899c0,0,0.393-0.147,1.442,0.145c0,0,1.776,0.222,0.482,1.399
		c0,0-0.745,0.755-1.363,1.598c0,0-1.42,1.253-2.71,0.498C236.967,64.85,234.688,63.396,237.174,62.108z"/>
	<path fill="#231F20" d="M253.432,57.928c0,0,4.745-1.474,8.108-0.288c0,0,5.587,1.147,2.226,7.873c0,0-4.291,6.913-5.411,8.56
		c0,0-2.698,6.855-8.788,4.109c0,0-5.881-3.605-6.849-7.829c0,0-0.689-2.597,2.466-6.823c0,0,3.293-4.698,8.163-5.602
		C258.222,57.025,253.432,57.928,253.432,57.928z"/>
	<path fill="#FFFFFF" d="M266.532,106.803c-0.653-2.174-0.719-4.696-0.408-5.863c0.041-0.159,0.556-3.317,5.273-2.836
		c0,0,3.393,0.518,5.152-1.002c0,0,2.272,0.3,4.151-0.621c0,0,3.923-1.617,4.062,2.997c0.135,4.396-2.031,8.524-2.763,9.723
		c0,0-3.729,5.261-8.624,4.195c-2.525-0.55-5.061-2.487-5.726-3.596C266.983,108.691,266.882,107.977,266.532,106.803z"/>
	<path fill="#231F20" d="M265.416,51.017c0,0-2.969,2.536-0.307,4.302c0,0,1.552,1.258,3.605-1.177c0,0,0.632-0.624,0.72-1.021
		c0.089-0.396-0.048-1.442-0.481-2.028C268.953,51.093,267.615,49.378,265.416,51.017z"/>
	<path fill="#231F20" d="M275.171,58.031c0,0,2.255-5.36,4.236-0.265c0,0,0.83,3.208-0.599,4.376c0,0-2.094,0.792-3.282-1.546
		C275.527,60.596,274.83,59.502,275.171,58.031z"/>
	<path fill="#231F20" d="M268.064,70.41c0,0,3.854-9.157,8.587-3.729c4.217,5.146,5.32,6.829,2.965,15.183
		c0,0,1.074,6.14-5.445,7.902c0,0-6.823-0.004-8.735-2.074c0,0-2.576-2.108-3.397-5.972c-0.33-1.55-0.199-3.796,2.093-5.826
		C264.13,75.894,267.649,70.98,268.064,70.41z"/>
	<path fill="#231F20" d="M285.158,84.02c0.319-0.453,1.877-1.916,2.648,0.129c0,0,0.476,1.511-0.161,3.8
		c0,0-0.517,5.327-3.214,1.467c0,0-0.854-1.691,0.069-4.249L285.158,84.02z"/>
	<path fill="#231F20" d="M265.647,100.208c0.019-0.163,0.556-3.316,5.271-2.837c0,0,3.395,0.519,5.152-1
		c0,0,1.758-1.716,3.636-2.638c0,0,3.445-1.879,4.955,1.48c0,0,1.357,3.874-1.561,9.069c0,0-3.753,7.746-9.542,7.668
		c0,0-5.463-2.217-7.026-5.247C266.532,106.704,265.166,104.639,265.647,100.208z"/>
	<path fill="#231F20" d="M256.728,122.185c6.66-7.99,4.841-13.407,4.841-13.407c-2.571-7.167-1.796-13.533-1.796-13.533
		c0.178-1.771,0.466-4.757,0.466-4.757c0.176-7.173-4.718-7.278-4.718-7.278c-4.337-0.798-8.496,2.92-10.973,4.689
		c-2.478,1.77-6.586,4.396-11.152,6.018c-4.787,1.699-7.649,4.297-8.849,9.425c-3.002,12.835,9.549,22.019,10.827,23.284
		C235.375,126.625,250.069,130.176,256.728,122.185z"/>
	<path fill="#FFFFFF" d="M272.681,62.463"/>
	<path fill="#458E34" d="M266.374,52.378c0,0-2.004,2.042-1.109,2.996c0.149,0.16,0.835,0.439,1.688,0.201
		c0.567-0.16,1.544-0.681,2.085-1.333c0.602-0.723,0.483-1.871,0.268-2.303C269.082,51.494,267.715,51.377,266.374,52.378z"/>
	<path fill="#458E34" d="M276.67,59.007c0,0,2.149-3.407,2.838-0.877c0.449,1.865,0.455,4.083-1.083,4.195
		c-1.487,0.111-1.786-0.688-1.908-1.352C276.417,60.437,276.456,59.972,276.67,59.007z"/>
	<path fill="#458E34" d="M238.032,63.305c0,0,0.491-0.484,1.186-0.549c0,0,1.303-0.238,1.451-0.149
		c0.151,0.094,0.282,0.244,0.042,0.493c0,0-0.599,0.582-0.93,1.166c-0.33,0.582-1.368,1.299-2.531,0.699
		C237.25,64.964,236.244,64.289,238.032,63.305z"/>
	<path fill="#458E34" d="M286.449,85.297c0.378-0.51,1.41-0.847,1.512,0.055c0.076,0.7,0.034,1.877-0.196,3.098
		s-0.842,4.106-2.677,1.775c0,0-0.009-1.732,0.235-2.487C285.568,86.985,286.073,85.807,286.449,85.297z"/>
	<path fill="#458E34" d="M261.388,60.522c4.264,1,2.376,5.078,1.846,6.011c-0.528,0.931-4.566,7.852-5.476,9.19
		c0,0-3.314,5.444-8.841,2.081c0,0-4.434-3.668-4.317-7.122c-0.084-0.878,0.36-1.855,2.923-5.285c0,0,2.174-3.797,6.128-4.529
		C257.612,60.133,260.27,60.259,261.388,60.522z"/>
	<path fill="#458E34" d="M272.063,100.21c0,0,4.414,2.304,7.658-2.899c1.18-1.895,5.241-0.83,5.041,2.634
		c0,0-1.017,4.027-1.931,5.794c-0.913,1.764-3.592,6.679-8.709,6.292c-3.962-0.3-6.526-2.73-7.591-5.327
		C266.532,106.704,266.478,98.612,272.063,100.21z"/>
	<path fill="#458E34" d="M235.011,97.172c3.121-0.391,8.496-3.789,10.377-5.451c2-1.766,8.776-7.226,12.672-3.764
		c0.833,0.865,1.931,2.797,1.865,4.861c-0.048,1.467-0.219,3.684-0.087,6.06c0.217,3.908,1.541,7.518,2.063,9.29
		c1.021,3.463,3.617,13.795-8.89,18.979c-7.703,3.192-14.081,3.075-18.479,0.066c-1.898-1.298-7.216-6.671-7.901-10.576
		c-0.686-3.907-0.354-8.202-0.121-9.601c0.233-1.399,0.954-4.273,1.91-5.916C229.375,99.478,231.89,97.563,235.011,97.172z"/>
	<path fill="#458E34" d="M230.69,70.847c0,0,5.263-2.866,5.329-0.135c-0.134,0.931-0.283,1.897-0.286,2.804
		c-0.005,0.824,0.336,1.724,1.572,3.221c1.583,1.917,1.62,4.83,1.22,6.87c-0.797,4.085-7.368,7.903-12.164,3.782
		c-3.059-3.156-2.239-7.602-2.218-8.422c0,0,0.13-2.952,3.651-5.703C227.794,73.265,229.735,71.399,230.69,70.847z"/>
	<path fill="#2F6F25" d="M274.259,89.756"/>
	<path fill="#458E34" d="M270.491,73.575c1.598-2.309,4.933-9.456,9.723-1.51c0,0,2.813,3.712,0.9,10.5c0,0-2.233,6.369-6.854,7.191
		c-5.066,0.9-7.803-1.311-8.114-1.531c0,0-1.199-1.31-1.487-3.774c-0.216-1.845-0.111-5.06,1.844-6.882
		C266.501,77.569,268.892,75.883,270.491,73.575z"/>
</g>
</svg>
